<svg xmlns="http://www.w3.org/2000/svg" version="1.1" width="1280" height="228">
<path d="M0 0 C51.81 0 103.62 0 157 0 C157 51.48 157 102.96 157 156 C105.19 156 53.38 156 0 156 C0 104.52 0 53.04 0 0 Z " fill="#0059AA" transform="translate(0,0)"/>
<path d="M0 0 C3.62 2.76 6.83 5.74 10 9 C10.93 9.92 10.93 9.92 11.89 10.86 C20.6 20.02 29 34.2 29 47 C8.87 47.33 -11.26 47.66 -32 48 C-32.66 49.65 -33.32 51.3 -34 53 C-35.17 55.32 -36.36 57.62 -37.59 59.91 C-38.11 60.88 -38.11 60.88 -38.64 61.88 C-39.36 63.24 -40.09 64.61 -40.82 65.97 C-41.93 68.06 -43.04 70.14 -44.15 72.23 C-44.86 73.56 -45.57 74.89 -46.28 76.22 C-46.61 76.84 -46.93 77.46 -47.27 78.1 C-50.9 84.87 -50.9 84.87 -53 87 C-55.27 87.45 -55.27 87.45 -57.89 87.39 C-58.82 87.38 -59.76 87.36 -60.73 87.35 C-61.7 87.32 -62.68 87.28 -63.69 87.25 C-64.68 87.23 -65.66 87.21 -66.68 87.2 C-69.12 87.15 -71.56 87.08 -74 87 C-74 83.54 -73.19 82.07 -71.59 79.03 C-70.81 77.55 -70.81 77.55 -70.03 76.05 C-69.48 75.02 -68.94 74 -68.38 72.94 C-67.85 71.94 -67.33 70.94 -66.79 69.91 C-63.81 64.24 -60.66 58.72 -57.33 53.25 C-54.91 49.16 -52.95 44.88 -50.91 40.59 C-50.6 40.03 -50.29 39.47 -49.97 38.89 C-48.92 36.96 -48.92 36.96 -48.18 34.6 C-46.8 31.49 -45.78 30.02 -43 28 C-36.25 26.3 -29.02 26.83 -22.12 26.94 C-20.18 26.93 -18.23 26.93 -16.28 26.92 C-11.52 26.9 -6.76 26.93 -2 27 C-8.07 19.63 -8.07 19.63 -16.06 14.56 C-17.02 14.11 -17.98 13.66 -18.97 13.19 C-30.83 8.53 -44.36 8.04 -56.32 12.73 C-69.95 19.19 -79.02 27.53 -84.38 41.88 C-88.92 55.11 -87.58 67.67 -81.69 80.25 C-76.06 90.73 -66.41 99.08 -55.06 103 C-42.5 106.6 -27.64 106.53 -15.91 100.38 C-13.19 98.68 -10.58 96.92 -8 95 C-7.07 94.33 -6.14 93.66 -5.19 92.96 C-4.47 92.32 -3.74 91.67 -3 91 C-3 90.01 -3 89.02 -3 88 C-11.91 87.67 -20.82 87.34 -30 87 C-30 83.84 -29.6 82.91 -28.1 80.24 C-27.7 79.53 -27.31 78.83 -26.9 78.1 C-26.48 77.36 -26.06 76.63 -25.62 75.88 C-25.21 75.13 -24.8 74.39 -24.38 73.63 C-21.26 68.13 -21.26 68.13 -19 67 C-17.49 66.91 -15.98 66.87 -14.47 66.87 C-13.07 66.87 -13.07 66.87 -11.63 66.86 C-10.62 66.86 -9.6 66.87 -8.56 66.87 C-7.52 66.87 -6.48 66.87 -5.41 66.86 C-3.22 66.86 -1.02 66.87 1.18 66.87 C4.55 66.87 7.93 66.87 11.3 66.86 C13.43 66.86 15.56 66.87 17.69 66.87 C18.71 66.87 19.72 66.86 20.77 66.86 C21.71 66.86 22.64 66.87 23.6 66.87 C24.43 66.87 25.26 66.87 26.11 66.87 C28 67 28 67 29 68 C28.2 84.51 19.28 97.65 7.6 108.79 C-9.8 123.62 -27.93 126.17 -50 125 C-63.13 123.49 -75.09 116.45 -85 108 C-86.01 107.26 -87.02 106.52 -88.06 105.75 C-100.75 94.92 -106.83 77.69 -108.32 61.57 C-108.92 44.41 -102.92 26.49 -91.56 13.5 C-90.06 11.98 -88.54 10.48 -87 9 C-86.34 8.31 -85.67 7.61 -84.99 6.9 C-62.25 -15.5 -26.16 -16.27 0 0 Z " fill="#F4FB0F" transform="translate(117,20)"/>
</svg>